<?xml version="1.0" encoding="iso-8859-1"?>
<!-- Generator: Adobe Illustrator 19.0.0, SVG Export Plug-In . SVG Version: 6.00 Build 0)  -->
<svg version="1.1" id="Layer_1" xmlns="http://www.w3.org/2000/svg" xmlns:xlink="http://www.w3.org/1999/xlink" 
	x="0px" y="0px" 
	width= "430px" height="375px"
	 viewBox="0 0 432 354.818">

<path fill="#DD4422" d="M370.809,36.246c-9.383,5.364-17.462,12.721-26.456,18.715c-3.588,2.391-7.422,4.559-11.411,6.267
	c-7.057-7.469-23.495-14.593-28.443-21.408c-13.139-18.098-70.942-36.476-70.73-47.492c-2.427-0.542-6.363,2.71-8.875,2.282
	c0,0-0.658-1.011-0.658-4.4c-2.962-0.149-17.132,4.4-17.132,4.4c-37.359,6.364-65.519,25.807-79.604,45.21
	c-4.948,6.816-21.385,13.939-28.443,21.408c-3.989-1.708-7.823-3.876-11.411-6.267c-8.994-5.994-17.072-13.351-26.455-18.715
	C43.158,25.937,20.664,23.778,1,30.47c7.024,17.161,16.604,33.481,29.716,46.592c13.112,13.112,29.939,22.885,48.249,25.813
	c8.278,1.323,16.663,1.244,25.063,1.065c5.756,7.788,11.471,15.579,13.034,24.695c1.358,7.924-0.618,15.979-0.748,23.999
	c-0.205,12.745,11.994,32.186,14.485,44.729c4.148,20.89,14.375,45.801,12.211,66.939c-1.051,10.257-7.676,20.959-4.845,30.932
	c2.695,9.495,6.522,13.118,12.598,21.211c6.606,8.797,1.931,11.769,11.626,17.727c15.356,9.436,34.845,9.592,53.611,8.242
	c18.767,1.35,38.255,1.194,53.611-8.242c9.696-5.958,5.021-8.929,11.626-17.727c6.076-8.092,9.902-11.716,12.598-21.211
	c2.831-9.973-3.795-20.675-4.845-30.932c-2.165-21.138,8.062-46.049,12.211-66.939c2.491-12.542,14.69-31.984,14.485-44.729
	c-0.129-8.019-2.106-16.075-0.747-23.999c1.563-9.116,7.278-16.906,13.034-24.695c8.4,0.179,16.785,0.259,25.063-1.065
	c18.31-2.927,35.137-12.701,48.249-25.813C414.396,63.95,423.976,47.63,431,30.47C411.336,23.778,388.842,25.937,370.809,36.246z"
/>
</svg>
