<?xml version="1.0" encoding="iso-8859-1"?>
<!-- Generator: Adobe Illustrator 19.0.0, SVG Export Plug-In . SVG Version: 6.00 Build 0)  -->
<svg version="1.1" id="Layer_1" xmlns="http://www.w3.org/2000/svg" xmlns:xlink="http://www.w3.org/1999/xlink" x="0px" y="0px"
	 viewBox="0 -38.312 432 410.335" style="enable-background:new 0 -38.312 432 410.335;" xml:space="preserve">
<g id="cow-head-pattern-7">
	<path d="M356.518,64.295c-14.234-10.932-29.763-20.554-46.027-29.359c0.435-7.761-1.401-15.523-6.111-21.694
		c-2.546-3.336-6.177-6.274-10.373-6.348c-2.066-0.037-4.073,0.625-6.032,1.278c-6.532,2.178-13.064,4.357-19.596,6.535
		c-4.396-1.878-8.785-3.762-13.245-5.553c0.948-0.819,1.949-1.573,2.809-2.496c6.063-6.512,9.331-16.209,6.297-24.574
		c-2.052-5.657-6.693-10.075-11.924-13.05c-5.231-2.974-11.072-4.672-16.852-6.346c3.315,9.577,1.912,20.666-3.684,29.116
		c-1.576,2.38-3.502,4.505-5.643,6.39c-0.407-0.146-0.813-0.292-1.219-0.437c-4.043-3.729-8.087-7.458-12.13-11.187
		c-5.299-4.887-10.877-9.935-17.94-12.013c-7.542-2.22-15.681-0.736-23.405,0.828c-9.982,2.02-20.311,4.311-28.324,10.302
		c-3.868,2.891-6.881,6.461-9.465,10.361c-4.991-0.63-10.33-0.271-15.37-0.063c-19.565,0.802-39.295-2.697-57.389-10.18
		C54.837-3.422,61.138,10.936,71.369,17.87s23.124,8.313,35.441,9.322c3.703,0.303,7.417,0.56,11.13,0.81
		c-1.736,3.278-3.606,6.476-5.631,9.602c-12.354-7.589-27.768-10.391-42.417-9.361c-19.282,1.355-37.638,8.489-55.498,15.882
		c-1.084,18.072,12.845,34.152,29.061,42.2c11.384,5.649,23.855,8.312,36.407,10.676c1.057,3.821,2.113,7.643,3.17,11.464
		c-14.605,24.237-29.211,48.474-43.817,72.711c-6.715,11.143-13.942,22.791-25.354,29.041c-3.682,2.017-7.893,3.557-10.342,6.967
		c-2.528,3.519-2.567,8.184-2.507,12.516c0.197,14.243,0.394,28.485,0.591,42.728c0.039,2.798,0.173,5.858,2.024,7.957
		c1.366,1.549,3.418,2.269,5.375,2.928c14.349,4.832,28.698,9.664,43.047,14.496c2.925,0.985,5.96,1.983,9.031,1.677
		c4.616-0.461,8.375-3.727,12.012-6.606c13.758-10.887,30.377-18.06,47.699-20.816c9.632,4.676,18.926,10.242,29.306,12.761
		c24.348,5.907,49.643-6.574,68.114-23.626c1.521,1.391,3.004,2.811,4.354,4.327c14.265,16.018,16.804,37.599,10.143,56.561
		s-21.688,35.48-39.584,48.934c55.768-9.294,110.841-25.452,155.465-53.92c44.624-28.468,77.905-70.417,81.98-116.116
		C435.139,149.765,402.69,99.757,356.518,64.295z"/>
</g>
<g id="Layer_1_1_">
</g>
</svg>
