<?xml version="1.0" standalone="no"?>
<!DOCTYPE svg PUBLIC "-//W3C//DTD SVG 20010904//EN"
 "http://www.w3.org/TR/2001/REC-SVG-20010904/DTD/svg10.dtd">
<svg version="1.0" xmlns="http://www.w3.org/2000/svg"
 width="178" height="112" viewBox="0 0 178 112"
 preserveAspectRatio="xMidYMid meet">

<rect width="100%" height="100%" fill="none"/>
<g transform="translate(0,112) scale(0.1,-0.1)"
fill="#DD8833" stroke="none">
<path d="M266 966 c-8 -32 -34 -41 -58 -20 -24 23 -33 12 -21 -28 10 -36 -6
-72 -73 -155 -39 -48 -42 -63 -14 -88 16 -14 39 -18 117 -19 132 -2 148 -11
200 -111 22 -43 50 -87 62 -96 25 -20 27 -37 6 -45 -24 -9 -57 -71 -50 -93 8
-26 186 -211 203 -211 17 0 15 65 -3 80 -8 7 -15 19 -15 26 0 8 -11 19 -24 24
-28 10 -69 72 -61 92 4 11 115 78 130 78 9 0 125 -204 125 -220 0 -9 -9 -25
-20 -35 -31 -28 -25 -45 15 -45 29 0 37 5 51 32 14 28 15 39 4 83 -13 56 -49
180 -57 203 -6 13 9 14 118 8 77 -4 137 -3 159 4 46 13 66 5 79 -30 10 -31 25
-38 36 -19 5 6 12 4 20 -8 13 -17 14 -17 34 1 30 27 27 4 -8 -69 -18 -37 -52
-83 -90 -120 -33 -33 -61 -65 -61 -72 0 -8 13 -13 33 -13 26 0 42 9 74 42 23
24 66 68 96 99 32 33 58 70 62 88 10 45 25 48 56 13 46 -51 65 -158 34 -198
-25 -34 -18 -44 30 -44 33 0 47 5 52 16 9 24 9 101 -1 172 -9 63 -9 64 12 51
29 -18 35 -8 33 48 -1 27 -1 116 -1 198 1 119 -3 161 -17 205 -17 51 -23 57
-78 88 -59 32 -62 33 -155 28 -52 -3 -144 -10 -205 -17 -72 -7 -148 -8 -220
-3 -60 5 -182 9 -270 9 -201 2 -188 0 -228 35 -19 17 -41 30 -50 30 -8 0 -20
7 -27 15 -18 21 -27 19 -34 -9z m1244 -430 c0 -91 -11 -130 -24 -83 -8 30 -8
162 1 170 18 19 23 -1 23 -87z"/>
</g>
</svg>
